<?xml version="1.0" encoding="UTF-8"?>
<svg id="Ebene_1" data-name="Ebene 1" xmlns="http://www.w3.org/2000/svg" viewBox="0 0 2400 1071.55">
  <defs>
    <style>
      .cls-1 {
        fill: #c40d1e;
      }
    </style>
  </defs>
  <path class="cls-1" d="m840.32,880.29c53.55,0,92.03-15.9,121.91-35.92,27.87-18.67,49.46-40.76,66.03-69.27,21.41-36.84,23.68-71.08,25.48-90.94.01-.16,39.88-412.97,39.88-412.97h-194.58s-58.79,609.09-58.73,609.09Z"/>
  <path class="cls-1" d="m653.02,385.73l-29.43,305.5c-4.95,66.81,20.1,101.14,35.69,119.22,28.47,33.03,80.82,59,141.29,69.83,1.68-17.76,56.31-584.48,56.31-584.58,1.81-27.74-6.27-52-24.78-73.14-21.58-24.65-53.62-30.33-66.81-30.33l-482.51.05c-35.71,0-89.29,34.52-89.29,94.29,0,73.85,65.62,99.16,88.2,99.16,11.52,0,371.33,0,371.33,0Z"/>
  <path class="cls-1" d="m378.46,800.67c4.57-48.64,36.31-375.61,36.31-375.61l194.84.4-36.13,375.22h-195.02Z"/>
  <g>
    <path class="cls-1" d="m1215.08,286.95v99.58h-18.62v-99.58h-31.6v-15.72h81.99v15.72h-31.77Z"/>
    <path class="cls-1" d="m1271.64,386.53v-115.3h60.82v15.55h-42.2v32.8h40.14v15.2h-40.14v35.87h42.2v15.89h-60.82Z"/>
    <path class="cls-1" d="m1413.78,387.89c-38.6,0-52.78-24.94-52.78-55.68,0-35.87,18.1-62.01,56.88-62.01,8.54,0,17.42,1.37,25.45,3.25l-2.05,17.08c-8.37-2.56-16.57-3.93-24.94-3.93-24.09,0-35.02,18.45-35.02,42.53,0,26.82,11.45,42.02,36.56,42.02,7.85,0,17.94-2.22,24.25-5.3l2.22,16.57c-8.71,3.42-19.47,5.47-30.57,5.47Z"/>
    <path class="cls-1" d="m1550.1,386.53v-51.76h-54.49v51.76h-18.62v-115.3h18.62v47.65h54.49v-47.65h18.44v115.3h-18.44Z"/>
    <path class="cls-1" d="m1678.24,386.53l-39.46-65.59c-5.12-8.37-9.22-16.57-12.8-24.26.68,11.27,1.02,34.68,1.02,51.07v38.77h-18.11v-115.3h24.43l38.1,62.86c5.12,8.54,9.73,17.76,14,26.13-.68-13.15-1.19-37.92-1.19-54.83v-34.16h18.1v115.3h-24.09Z"/>
    <path class="cls-1" d="m1742.66,386.53v-115.3h18.62v115.3h-18.62Z"/>
    <path class="cls-1" d="m1818.69,388.24c-8.37,0-16.57-1.03-23.24-2.73l1.03-17.6c6.49,2.39,15.54,4.27,23.91,4.27,12.64,0,22.89-5.3,22.89-17.77,0-24.26-50.39-14.01-50.39-51.24,0-19.82,15.55-33.65,42.36-33.65,6.83,0,13.84.86,20.84,2.05l-1.02,16.57c-6.66-2.05-14.01-3.24-20.84-3.24-14.35,0-21.69,6.66-21.69,16.23,0,23.06,50.38,14.52,50.38,50.56,0,21.18-16.74,36.56-44.24,36.56Z"/>
    <path class="cls-1" d="m1941.35,387.89c-38.6,0-52.78-24.94-52.78-55.68,0-35.87,18.1-62.01,56.88-62.01,8.54,0,17.42,1.37,25.45,3.25l-2.05,17.08c-8.38-2.56-16.57-3.93-24.94-3.93-24.09,0-35.02,18.45-35.02,42.53,0,26.82,11.45,42.02,36.56,42.02,7.85,0,17.94-2.22,24.25-5.3l2.22,16.57c-8.71,3.42-19.47,5.47-30.57,5.47Z"/>
    <path class="cls-1" d="m2077.68,386.53v-51.76h-54.49v51.76h-18.62v-115.3h18.62v47.65h54.49v-47.65h18.44v115.3h-18.44Z"/>
    <path class="cls-1" d="m2136.46,386.53v-115.3h60.82v15.55h-42.2v32.8h40.14v15.2h-40.14v35.87h42.2v15.89h-60.82Z"/>
    <path class="cls-1" d="m1219.18,595.25c-36.22,0-43.9-19.82-43.9-40.99v-76.02h18.62v74.64c0,15.37,5.12,26.99,26.48,26.99,18.79,0,27.33-7.85,27.33-29.38v-72.26h18.28v70.89c0,30.75-16.57,46.12-46.81,46.12Z"/>
    <path class="cls-1" d="m1373.11,593.55l-39.46-65.6c-5.12-8.37-9.22-16.57-12.8-24.26.68,11.27,1.02,34.68,1.02,51.07v38.78h-18.11v-115.3h24.43l38.1,62.86c5.12,8.54,9.73,17.77,14,26.14-.68-13.15-1.19-37.93-1.19-54.83v-34.16h18.1v115.3h-24.09Z"/>
    <path class="cls-1" d="m1435.82,593.55v-115.3h18.62v115.3h-18.62Z"/>
    <path class="cls-1" d="m1539.86,593.55h-21.18l-40.99-115.3h20.49l24.26,71.06c2.39,6.66,5.12,14.86,7.35,23.4h.17c2.05-8.03,4.1-15.2,7.52-24.6l24.77-69.86h19.13l-41.51,115.3Z"/>
    <path class="cls-1" d="m1604.62,593.55v-115.3h60.82v15.55h-42.2v32.8h40.14v15.2h-40.14v35.87h42.2v15.89h-60.82Z"/>
    <path class="cls-1" d="m1753.59,593.55l-35.87-49.88h-.86v49.88h-18.62v-115.3c8.37-.51,17.94-.68,30.92-.68,23.91,0,40.31,8.37,40.31,31.26,0,18.45-13.84,30.23-32.63,32.28,3.25,4.1,6.84,8.54,9.74,12.3l30.4,40.14h-23.39Zm-26.99-100.78c-3.59,0-7.01.17-9.74.34v36.56c1.71.17,4.96.34,9.05.34,15.03,0,24.09-7.69,24.09-19.13,0-12.64-7.85-18.11-23.39-18.11Z"/>
    <path class="cls-1" d="m1822.1,595.25c-8.37,0-16.57-1.02-23.24-2.73l1.03-17.6c6.49,2.39,15.54,4.27,23.91,4.27,12.64,0,22.89-5.29,22.89-17.76,0-24.26-50.39-14.01-50.39-51.24,0-19.82,15.55-33.65,42.36-33.65,6.83,0,13.84.86,20.84,2.05l-1.02,16.57c-6.66-2.05-14.01-3.24-20.84-3.24-14.35,0-21.69,6.66-21.69,16.23,0,23.06,50.38,14.52,50.38,50.56,0,21.18-16.74,36.56-44.24,36.56Z"/>
    <path class="cls-1" d="m1896.26,593.55v-115.3h18.62v115.3h-18.62Z"/>
    <path class="cls-1" d="m1989.36,493.96v99.59h-18.62v-99.59h-31.6v-15.72h81.99v15.72h-31.77Z"/>
    <path class="cls-1" d="m2103.99,593.55l-8.89-25.45h-46.63l-8.88,25.45h-18.79l41.34-115.3h20.67l41.85,115.3h-20.67Zm-48.51-125.21c-5.81,0-10.25-4.61-10.25-10.42s4.44-10.25,10.25-10.25,10.42,4.61,10.42,10.25-4.61,10.42-10.42,10.42Zm21.52,48.68c-2.22-5.98-3.76-11.44-5.12-17.76h-.34c-1.2,5.81-3.08,12.13-5.3,18.27l-12.98,35.7h36.9l-13.15-36.21Zm12.13-48.68c-5.81,0-10.42-4.61-10.42-10.42s4.62-10.25,10.42-10.25,10.25,4.61,10.25,10.25-4.62,10.42-10.25,10.42Z"/>
    <path class="cls-1" d="m2174.73,493.96v99.59h-18.62v-99.59h-31.6v-15.72h81.99v15.72h-31.77Z"/>
    <path class="cls-1" d="m1206.71,801.08c-7.01,0-18.62-.34-31.43-.52v-115.3c9.06-.17,22.21-.51,36.22-.51,25.11,0,38.1,10.25,38.1,28.01,0,11.79-7.86,22.21-19.65,26.31v.34c15.03,2.9,22.04,14.34,22.04,26.31,0,15.03-9.91,35.36-45.27,35.36Zm1.71-101.47c-5.12,0-10.08.17-14.52.34v34.16c3.08.17,5.98.17,9.91.17,17.25,0,26.31-7.01,26.31-18.62,0-9.39-5.29-16.06-21.7-16.06Zm-4.09,48.51c-1.88,0-7.86,0-10.42.17v36.73c2.9.51,7.52.85,13.49.85,16.91,0,24.94-8.19,24.94-19.81,0-13.15-11.79-17.94-28.01-17.94Z"/>
    <path class="cls-1" d="m1283.25,800.57v-115.3h60.82v15.55h-42.2v32.8h40.14v15.2h-40.14v35.87h42.2v15.88h-60.82Z"/>
    <path class="cls-1" d="m1432.22,800.57l-35.87-49.88h-.86v49.88h-18.62v-115.3c8.37-.51,17.94-.68,30.92-.68,23.91,0,40.31,8.37,40.31,31.27,0,18.44-13.84,30.23-32.63,32.28,3.25,4.1,6.84,8.54,9.74,12.3l30.4,40.14h-23.39Zm-26.99-100.78c-3.59,0-7.01.17-9.74.34v36.55c1.71.17,4.96.34,9.05.34,15.03,0,24.09-7.69,24.09-19.13,0-12.64-7.85-18.1-23.39-18.1Z"/>
    <path class="cls-1" d="m1482.46,800.57v-115.3h18.62v99.08h39.63v16.22h-58.25Z"/>
    <path class="cls-1" d="m1563.95,800.57v-115.3h18.62v115.3h-18.62Z"/>
    <path class="cls-1" d="m1690.54,800.57l-39.46-65.59c-5.12-8.37-9.22-16.57-12.8-24.25.68,11.27,1.02,34.67,1.02,51.07v38.78h-18.11v-115.3h24.43l38.1,62.86c5.12,8.54,9.73,17.76,14,26.13-.68-13.15-1.19-37.92-1.19-54.83v-34.17h18.1v115.3h-24.09Z"/>
  </g>
</svg>